<svg xmlns="http://www.w3.org/2000/svg" width="64" height="64" viewBox="0 0 64 64">
  <rect width="64" height="64" fill="#111110" rx="8"/>
  <!-- tip — white ghost -->
  <circle cx="32" cy="6"  r="2"   fill="#ffffff" opacity="0.18"/>
  <!-- upper — white ghost -->
  <circle cx="26" cy="13" r="2.5" fill="#ffffff" opacity="0.22"/>
  <circle cx="37" cy="15" r="2"   fill="#ffffff" opacity="0.18"/>
  <circle cx="31" cy="20" r="3"   fill="#ffffff" opacity="0.28"/>
  <circle cx="41" cy="19" r="2"   fill="#ffffff" opacity="0.18"/>
  <circle cx="22" cy="19" r="2"   fill="#ffffff" opacity="0.2"/>
  <!-- mid-upper — white secondary -->
  <circle cx="18" cy="27" r="3"   fill="#ffffff" opacity="0.42"/>
  <circle cx="28" cy="24" r="3.5" fill="#ffffff" opacity="0.5"/>
  <circle cx="38" cy="25" r="3"   fill="#ffffff" opacity="0.45"/>
  <circle cx="46" cy="28" r="2.5" fill="#ffffff" opacity="0.35"/>
  <!-- mid — transition -->
  <circle cx="15" cy="35" r="3.5" fill="#ffffff" opacity="0.45"/>
  <circle cx="25" cy="31" r="4"   fill="#ffffff" opacity="0.52"/>
  <circle cx="35" cy="30" r="4"   fill="#861442" opacity="0.42"/>
  <circle cx="45" cy="33" r="3.5" fill="#861442" opacity="0.38"/>
  <circle cx="51" cy="38" r="2.5" fill="#861442" opacity="0.28"/>
  <!-- mid-lower — crimson rising -->
  <circle cx="14" cy="43" r="4"   fill="#861442" opacity="0.55"/>
  <circle cx="24" cy="39" r="5"   fill="#861442" opacity="0.7"/>
  <circle cx="34" cy="38" r="5.5" fill="#861442" opacity="0.82"/>
  <circle cx="44" cy="40" r="4.5" fill="#861442" opacity="0.72"/>
  <circle cx="52" cy="45" r="3"   fill="#861442" opacity="0.45"/>
  <!-- base — full crimson -->
  <circle cx="18" cy="51" r="4.5" fill="#861442" opacity="0.88"/>
  <circle cx="28" cy="47" r="5.5" fill="#861442" opacity="1"/>
  <circle cx="38" cy="46" r="6"   fill="#861442" opacity="1"/>
  <circle cx="48" cy="49" r="4.5" fill="#861442" opacity="0.9"/>
  <!-- bottom anchor -->
  <circle cx="23" cy="58" r="4"   fill="#861442" opacity="0.85"/>
  <circle cx="33" cy="56" r="5"   fill="#861442" opacity="1"/>
  <circle cx="43" cy="57" r="4"   fill="#861442" opacity="0.78"/>
</svg>
